<svg width="47" height="41" viewBox="0 0 47 41" fill="none" xmlns="http://www.w3.org/2000/svg">
<g clip-path="url(#clip0_2_3)">
<path fill-rule="evenodd" clip-rule="evenodd" d="M27.9747 4.98148C24.5502 -0.932486 15.9887 -0.932486 12.5642 4.98148L1.21455 24.5814C-2.20999 30.4955 2.0707 37.8879 8.91981 37.8879H20.2641C17.8026 35.1882 17.0399 31.0385 19.1329 27.442L24.7173 17.8459C26.5194 14.7492 29.7318 13.2801 32.8717 13.4385L27.9747 4.98148Z" fill="#308FE7"/>
<path d="M26.6422 20.7149C30.0712 14.8251 38.6025 14.8251 42.0315 20.7149L45.7379 27.0807C49.1811 32.9947 44.9017 40.4053 38.0432 40.4053H30.6306C23.772 40.4053 19.4926 32.9947 22.9358 27.0807L26.6422 20.7149Z" fill="#D9D9D9"/>
</g>
<defs>
<clipPath id="clip0_2_3">
<rect width="47" height="41" fill="white"/>
</clipPath>
</defs>
</svg>
