<svg width="89" height="78" viewBox="0 0 89 78" fill="none" xmlns="http://www.w3.org/2000/svg">
<path fill-rule="evenodd" clip-rule="evenodd" d="M52.9733 9.47703C46.4887 -1.77392 30.2765 -1.77392 23.7917 9.47703L2.2999 46.7648C-4.18487 58.0159 3.92112 72.0794 16.8907 72.0794H38.3725C33.7113 66.9435 32.267 59.049 36.2304 52.2067L46.8051 33.9508C50.2175 28.0595 56.3006 25.2646 62.2465 25.566L52.9733 9.47703Z" fill="#222628"/>
<path d="M50.45 39.4089C56.9433 28.2039 73.0983 28.2039 79.5916 39.4089L86.61 51.5193C93.13 62.7704 85.0266 76.8686 72.0391 76.8686H58.0025C45.0151 76.8686 36.9114 62.7704 43.4316 51.5193L50.45 39.4089Z" fill="#222628"/>
</svg>
